<svg width="36" height="41" viewBox="0 0 36 41" fill="none" xmlns="http://www.w3.org/2000/svg">
  <path fill-rule="evenodd" clip-rule="evenodd" d="M29.9833 28.6289C28.4791 28.6289 27.0748 29.1365 26.072 30.1516L11.7323 21.7257C11.8327 21.218 11.9331 20.8116 11.9331 20.304C11.9331 19.7963 11.8327 19.3899 11.7323 18.8823L25.8722 10.5584C26.9749 11.5736 28.3792 12.1823 29.9833 12.1823C33.2922 12.1823 36 9.44107 36 6.0911C36 2.74133 33.2922 0 29.9833 0C26.6742 0 23.9665 2.74133 23.9665 6.0912C23.9665 6.59883 24.0664 7.00536 24.1673 7.51289L10.0279 15.8368C8.92472 14.8216 7.52091 14.2129 5.91638 14.2129C2.60738 14.2129 0 16.9542 0 20.3041C0 23.654 2.70722 26.3953 6.01669 26.3953C7.62122 26.3953 9.02503 25.7865 10.1282 24.7713L24.368 33.1973C24.2671 33.6028 24.1672 34.0093 24.1672 34.5169C24.1672 37.7658 26.7741 40.4048 29.9832 40.4048C33.1922 40.4048 35.7991 37.7658 35.7991 34.5169C35.7992 31.2679 33.1924 28.6289 29.9833 28.6289Z" fill="#304FFE"/>
</svg>